<svg width="113" height="31" viewBox="0 0 113 31" fill="none" xmlns="http://www.w3.org/2000/svg">
<path d="M3.762 3.694H0.072V0.399999H11.7V3.694H8.01V13H3.762V3.694ZM20.7565 10.804H15.9685L15.1225 13H10.8025L16.3105 0.399999H20.4865L25.9945 13H21.6025L20.7565 10.804ZM19.5865 7.744L18.3625 4.576L17.1385 7.744H19.5865ZM26.6725 0.399999H30.9205V13H26.6725V0.399999ZM32.9655 0.399999H37.2135V9.706H42.9015V13H32.9655V0.399999ZM63.7682 0.399999L59.7362 13H55.1822L53.1482 6.268L51.0062 13H46.4522L42.4202 0.399999H46.7942L48.9902 7.564L51.3122 0.399999H55.2182L57.4142 7.654L59.7362 0.399999H63.7682ZM64.7115 0.399999H68.9595V13H64.7115V0.399999ZM83.4245 0.399999V13H79.9325L75.1445 7.276V13H71.0045V0.399999H74.4965L79.2845 6.124V0.399999H83.4245ZM85.4713 0.399999H91.6813C93.0853 0.399999 94.3213 0.657999 95.3893 1.174C96.4693 1.678 97.3033 2.404 97.8913 3.352C98.4913 4.3 98.7913 5.416 98.7913 6.7C98.7913 7.984 98.4913 9.1 97.8913 10.048C97.3033 10.996 96.4693 11.728 95.3893 12.244C94.3213 12.748 93.0853 13 91.6813 13H85.4713V0.399999ZM91.5013 9.688C92.4133 9.688 93.1393 9.43 93.6793 8.914C94.2313 8.386 94.5073 7.648 94.5073 6.7C94.5073 5.752 94.2313 5.02 93.6793 4.504C93.1393 3.976 92.4133 3.712 91.5013 3.712H89.7193V9.688H91.5013ZM9.36 23.358H13.05V28.686C12.306 29.202 11.442 29.598 10.458 29.874C9.474 30.15 8.508 30.288 7.56 30.288C6.216 30.288 5.01 30.012 3.942 29.46C2.874 28.896 2.034 28.116 1.422 27.12C0.822 26.112 0.522 24.972 0.522 23.7C0.522 22.428 0.822 21.294 1.422 20.298C2.034 19.29 2.88 18.51 3.96 17.958C5.052 17.394 6.282 17.112 7.65 17.112C8.886 17.112 9.99 17.322 10.962 17.742C11.946 18.15 12.762 18.75 13.41 19.542L10.692 21.936C9.9 21.012 8.958 20.55 7.866 20.55C6.93 20.55 6.186 20.832 5.634 21.396C5.082 21.96 4.806 22.728 4.806 23.7C4.806 24.648 5.076 25.41 5.616 25.986C6.168 26.562 6.9 26.85 7.812 26.85C8.352 26.85 8.868 26.748 9.36 26.544V23.358ZM20.26 26.832H19.108V30H14.86V17.4H20.926C22.09 17.4 23.104 17.592 23.968 17.976C24.832 18.36 25.498 18.912 25.966 19.632C26.434 20.352 26.668 21.192 26.668 22.152C26.668 23.052 26.464 23.838 26.056 24.51C25.648 25.182 25.06 25.716 24.292 26.112L26.938 30H22.402L20.26 26.832ZM22.384 22.152C22.384 21.684 22.24 21.324 21.952 21.072C21.664 20.808 21.232 20.676 20.656 20.676H19.108V23.628H20.656C21.232 23.628 21.664 23.502 21.952 23.25C22.24 22.986 22.384 22.62 22.384 22.152ZM36.8581 27.804H32.0701L31.2241 30H26.9041L32.4121 17.4H36.5881L42.0961 30H37.7041L36.8581 27.804ZM35.6881 24.744L34.4641 21.576L33.2401 24.744H35.6881ZM42.774 17.4H48.984C50.388 17.4 51.624 17.658 52.692 18.174C53.772 18.678 54.606 19.404 55.194 20.352C55.794 21.3 56.094 22.416 56.094 23.7C56.094 24.984 55.794 26.1 55.194 27.048C54.606 27.996 53.772 28.728 52.692 29.244C51.624 29.748 50.388 30 48.984 30H42.774V17.4ZM48.804 26.688C49.716 26.688 50.442 26.43 50.982 25.914C51.534 25.386 51.81 24.648 51.81 23.7C51.81 22.752 51.534 22.02 50.982 21.504C50.442 20.976 49.716 20.712 48.804 20.712H47.022V26.688H48.804ZM57.6451 17.4H61.8931V30H57.6451V17.4ZM74.4141 26.796V30H63.9381V17.4H74.1801V20.604H68.1141V22.08H73.4421V25.14H68.1141V26.796H74.4141ZM88.4694 17.4V30H84.9774L80.1894 24.276V30H76.0494V17.4H79.5414L84.3294 23.124V17.4H88.4694ZM93.2522 20.694H89.5622V17.4H101.19V20.694H97.5002V30H93.2522V20.694ZM106.992 30.288C105.948 30.288 104.928 30.174 103.932 29.946C102.948 29.706 102.138 29.388 101.502 28.992L102.87 25.896C103.47 26.244 104.142 26.526 104.886 26.742C105.63 26.946 106.344 27.048 107.028 27.048C107.616 27.048 108.036 26.994 108.288 26.886C108.54 26.766 108.666 26.592 108.666 26.364C108.666 26.1 108.498 25.902 108.162 25.77C107.838 25.638 107.298 25.494 106.542 25.338C105.57 25.134 104.76 24.918 104.112 24.69C103.464 24.45 102.9 24.066 102.42 23.538C101.94 22.998 101.7 22.272 101.7 21.36C101.7 20.568 101.922 19.848 102.366 19.2C102.81 18.552 103.47 18.042 104.346 17.67C105.234 17.298 106.308 17.112 107.568 17.112C108.432 17.112 109.278 17.208 110.106 17.4C110.946 17.58 111.684 17.85 112.32 18.21L111.042 21.288C109.806 20.664 108.636 20.352 107.532 20.352C106.44 20.352 105.894 20.616 105.894 21.144C105.894 21.396 106.056 21.588 106.38 21.72C106.704 21.84 107.238 21.972 107.982 22.116C108.942 22.296 109.752 22.506 110.412 22.746C111.072 22.974 111.642 23.352 112.122 23.88C112.614 24.408 112.86 25.128 112.86 26.04C112.86 26.832 112.638 27.552 112.194 28.2C111.75 28.836 111.084 29.346 110.196 29.73C109.32 30.102 108.252 30.288 106.992 30.288Z" fill="black"/>
</svg>
